<mxfile host="Electron" agent="Mozilla/5.0 (Windows NT 10.0; Win64; x64) AppleWebKit/537.36 (KHTML, like Gecko) draw.io/26.0.4 Chrome/128.0.6613.186 Electron/32.2.5 Safari/537.36" version="26.0.4">
  <diagram name="Page-1" id="VGnpG6ZWJcaiQAcUuiWh">
    <mxGraphModel dx="1674" dy="854" grid="1" gridSize="10" guides="1" tooltips="1" connect="1" arrows="1" fold="1" page="1" pageScale="1" pageWidth="850" pageHeight="1100" math="0" shadow="0">
      <root>
        <mxCell id="0" />
        <mxCell id="1" parent="0" />
        <mxCell id="WffGR1eu-c3lRZ9H5UbW-1" value="Claw for Claw" style="text;strokeColor=none;fillColor=none;html=1;fontSize=24;fontStyle=1;verticalAlign=middle;align=center;" parent="1" vertex="1">
          <mxGeometry x="375" width="100" height="40" as="geometry" />
        </mxCell>
        <mxCell id="WffGR1eu-c3lRZ9H5UbW-6" style="edgeStyle=orthogonalEdgeStyle;rounded=0;orthogonalLoop=1;jettySize=auto;html=1;exitX=1;exitY=0.5;exitDx=0;exitDy=0;entryX=0;entryY=0.5;entryDx=0;entryDy=0;" parent="1" source="WffGR1eu-c3lRZ9H5UbW-2" target="WffGR1eu-c3lRZ9H5UbW-5" edge="1">
          <mxGeometry relative="1" as="geometry" />
        </mxCell>
        <mxCell id="WffGR1eu-c3lRZ9H5UbW-2" value="&lt;ul&gt;&lt;li&gt;bodkin&lt;/li&gt;&lt;li&gt;weigted&lt;/li&gt;&lt;li&gt;pick&lt;/li&gt;&lt;li&gt;blade&lt;/li&gt;&lt;li&gt;net&lt;/li&gt;&lt;li&gt;fire&lt;/li&gt;&lt;/ul&gt;" style="text;html=1;align=left;verticalAlign=top;whiteSpace=wrap;rounded=0;" parent="1" vertex="1">
          <mxGeometry x="40" y="70" width="110" height="120" as="geometry" />
        </mxCell>
        <mxCell id="WffGR1eu-c3lRZ9H5UbW-3" value="&lt;font style=&quot;font-size: 18px;&quot;&gt;Arrows&lt;/font&gt;" style="text;strokeColor=none;fillColor=none;html=1;fontSize=24;fontStyle=1;verticalAlign=middle;align=center;" parent="1" vertex="1">
          <mxGeometry x="40" y="40" width="100" height="40" as="geometry" />
        </mxCell>
        <mxCell id="WffGR1eu-c3lRZ9H5UbW-4" value="&lt;font style=&quot;font-size: 18px;&quot;&gt;Targets&lt;/font&gt;" style="text;strokeColor=none;fillColor=none;html=1;fontSize=24;fontStyle=1;verticalAlign=middle;align=center;" parent="1" vertex="1">
          <mxGeometry x="260" y="40" width="100" height="40" as="geometry" />
        </mxCell>
        <mxCell id="WffGR1eu-c3lRZ9H5UbW-5" value="&lt;ul&gt;&lt;li&gt;brown rat, black rat&lt;/li&gt;&lt;li&gt;wasp, acorn tree, switch, lever, clay pot, moving blocks, shield rat&lt;/li&gt;&lt;li&gt;lockbox, chest, door&lt;/li&gt;&lt;li&gt;blackberry bush, spiderweb, spike trap&lt;/li&gt;&lt;li&gt;jump pad&lt;/li&gt;&lt;li&gt;torch, soup fire&lt;/li&gt;&lt;/ul&gt;" style="text;html=1;align=left;verticalAlign=top;whiteSpace=wrap;rounded=0;" parent="1" vertex="1">
          <mxGeometry x="260" y="70" width="420" height="120" as="geometry" />
        </mxCell>
        <mxCell id="WffGR1eu-c3lRZ9H5UbW-7" value="&lt;font style=&quot;font-size: 18px;&quot;&gt;Pickups&lt;/font&gt;" style="text;strokeColor=none;fillColor=none;html=1;fontSize=24;fontStyle=1;verticalAlign=middle;align=center;" parent="1" vertex="1">
          <mxGeometry x="40" y="230" width="100" height="40" as="geometry" />
        </mxCell>
        <mxCell id="WffGR1eu-c3lRZ9H5UbW-8" value="&lt;ul&gt;&lt;li&gt;candied nut&lt;/li&gt;&lt;li&gt;nettle broth soup&lt;/li&gt;&lt;li&gt;dock leaf&lt;/li&gt;&lt;li&gt;sanicle&lt;/li&gt;&lt;li&gt;apple cider&lt;/li&gt;&lt;li&gt;armor&lt;/li&gt;&lt;/ul&gt;" style="text;html=1;align=left;verticalAlign=top;whiteSpace=wrap;rounded=0;" parent="1" vertex="1">
          <mxGeometry x="40" y="260" width="140" height="120" as="geometry" />
        </mxCell>
        <mxCell id="WffGR1eu-c3lRZ9H5UbW-9" value="&lt;ul&gt;&lt;li&gt;ranger bandage&lt;/li&gt;&lt;/ul&gt;" style="text;html=1;align=left;verticalAlign=top;whiteSpace=wrap;rounded=0;" parent="1" vertex="1">
          <mxGeometry x="260" y="260" width="140" height="120" as="geometry" />
        </mxCell>
        <mxCell id="WffGR1eu-c3lRZ9H5UbW-10" value="&lt;font style=&quot;font-size: 18px;&quot;&gt;Crafting&lt;/font&gt;" style="text;strokeColor=none;fillColor=none;html=1;fontSize=24;fontStyle=1;verticalAlign=middle;align=center;" parent="1" vertex="1">
          <mxGeometry x="260" y="230" width="100" height="40" as="geometry" />
        </mxCell>
        <mxCell id="WffGR1eu-c3lRZ9H5UbW-11" value="&lt;ul&gt;&lt;li&gt;squirrel&lt;/li&gt;&lt;li&gt;hare&lt;/li&gt;&lt;li&gt;vole&lt;/li&gt;&lt;li&gt;&lt;b&gt;gopher&lt;/b&gt;&lt;/li&gt;&lt;li&gt;&lt;b&gt;beaver&lt;/b&gt;&lt;/li&gt;&lt;li&gt;black rat&lt;/li&gt;&lt;li&gt;brown rat&lt;/li&gt;&lt;li&gt;wasp&lt;/li&gt;&lt;/ul&gt;" style="text;html=1;align=left;verticalAlign=top;whiteSpace=wrap;rounded=0;" parent="1" vertex="1">
          <mxGeometry x="40" y="438" width="140" height="152" as="geometry" />
        </mxCell>
        <mxCell id="WffGR1eu-c3lRZ9H5UbW-12" value="&lt;font style=&quot;font-size: 18px;&quot;&gt;Creatures&lt;/font&gt;" style="text;strokeColor=none;fillColor=none;html=1;fontSize=24;fontStyle=1;verticalAlign=middle;align=center;" parent="1" vertex="1">
          <mxGeometry x="40" y="408" width="100" height="40" as="geometry" />
        </mxCell>
        <mxCell id="WffGR1eu-c3lRZ9H5UbW-13" value="&lt;font style=&quot;font-size: 18px;&quot;&gt;Characters&lt;/font&gt;" style="text;strokeColor=none;fillColor=none;html=1;fontSize=24;fontStyle=1;verticalAlign=middle;align=center;" parent="1" vertex="1">
          <mxGeometry x="260" y="408" width="100" height="40" as="geometry" />
        </mxCell>
        <mxCell id="WffGR1eu-c3lRZ9H5UbW-14" value="&lt;ul&gt;&lt;li&gt;Sorrel&lt;/li&gt;&lt;ul&gt;&lt;li&gt;squirrel&lt;/li&gt;&lt;li&gt;ranger from distant land&lt;/li&gt;&lt;/ul&gt;&lt;li&gt;Wynn&lt;/li&gt;&lt;ul&gt;&lt;li&gt;hare&lt;/li&gt;&lt;li&gt;assistant cook&lt;/li&gt;&lt;li&gt;helps player&lt;/li&gt;&lt;/ul&gt;&lt;li&gt;Lumsden&lt;/li&gt;&lt;ul&gt;&lt;li&gt;vole&lt;/li&gt;&lt;li&gt;leader&lt;/li&gt;&lt;li&gt;former captain&lt;/li&gt;&lt;li&gt;former slave&lt;/li&gt;&lt;/ul&gt;&lt;li&gt;&lt;b&gt;Guard 1&lt;/b&gt;&lt;/li&gt;&lt;ul&gt;&lt;li&gt;vole&lt;/li&gt;&lt;/ul&gt;&lt;li&gt;&lt;b&gt;Guard 2&lt;/b&gt;&lt;/li&gt;&lt;ul&gt;&lt;li&gt;vole&lt;/li&gt;&lt;/ul&gt;&lt;li&gt;&lt;b&gt;Cook&lt;/b&gt;&lt;/li&gt;&lt;li&gt;&lt;b&gt;Quartermaster&lt;/b&gt;&lt;/li&gt;&lt;ul&gt;&lt;li&gt;sells armor&lt;/li&gt;&lt;/ul&gt;&lt;li&gt;&lt;b&gt;Brewster&lt;/b&gt;&lt;/li&gt;&lt;ul&gt;&lt;li&gt;sells cider&lt;/li&gt;&lt;/ul&gt;&lt;li&gt;&lt;b&gt;Physic&lt;/b&gt;&lt;/li&gt;&lt;ul&gt;&lt;li&gt;sells sanicle&lt;/li&gt;&lt;/ul&gt;&lt;li&gt;&lt;b&gt;Physic&#39;s Assistant&lt;/b&gt;&lt;/li&gt;&lt;ul&gt;&lt;li&gt;sells dock leaves&lt;/li&gt;&lt;/ul&gt;&lt;/ul&gt;" style="text;html=1;align=left;verticalAlign=top;whiteSpace=wrap;rounded=0;" parent="1" vertex="1">
          <mxGeometry x="260" y="438" width="240" height="402" as="geometry" />
        </mxCell>
        <mxCell id="WffGR1eu-c3lRZ9H5UbW-21" value="&lt;font style=&quot;font-size: 18px;&quot;&gt;Levels&lt;/font&gt;" style="text;strokeColor=none;fillColor=none;html=1;fontSize=24;fontStyle=1;verticalAlign=middle;align=center;" parent="1" vertex="1">
          <mxGeometry x="560" y="408" width="100" height="40" as="geometry" />
        </mxCell>
        <mxCell id="WffGR1eu-c3lRZ9H5UbW-22" value="&lt;ul&gt;&lt;li&gt;level 1&lt;/li&gt;&lt;ul&gt;&lt;li&gt;intro&lt;/li&gt;&lt;li&gt;meets Wynn&lt;/li&gt;&lt;li&gt;Wynn brings player to hub&lt;/li&gt;&lt;li&gt;intro to brown and black rats&lt;/li&gt;&lt;li&gt;intro to soup&lt;/li&gt;&lt;li&gt;intro to ledge grabbing&lt;/li&gt;&lt;/ul&gt;&lt;li&gt;level 2&lt;/li&gt;&lt;ul&gt;&lt;li&gt;intro to wasps&lt;/li&gt;&lt;li&gt;intro to blocks&lt;/li&gt;&lt;li&gt;clay pots placed around&lt;/li&gt;&lt;li&gt;puzzles with switches and levers&lt;/li&gt;&lt;/ul&gt;&lt;li&gt;level 3&lt;/li&gt;&lt;ul&gt;&lt;li&gt;intro to locks&lt;/li&gt;&lt;li&gt;fortifications or rat camp&lt;/li&gt;&lt;li&gt;shield rat?&lt;/li&gt;&lt;/ul&gt;&lt;/ul&gt;" style="text;html=1;align=left;verticalAlign=top;whiteSpace=wrap;rounded=0;" parent="1" vertex="1">
          <mxGeometry x="560" y="438" width="280" height="402" as="geometry" />
        </mxCell>
      </root>
    </mxGraphModel>
  </diagram>
</mxfile>
